<svg width="464" height="364" viewBox="0 0 464 364" fill="none" xmlns="http://www.w3.org/2000/svg">
<g clip-path="url(#clip0_1902_1904)">
<path d="M26.462 361.546C22.6335 354.538 17.5739 343.08 16.0858 328.266C13.7995 305.457 20.3878 278.36 35.8507 263.722C58.1861 242.564 84.9587 260.705 126.761 255.659C205.469 246.149 207.85 170.106 293.553 151.816C305.823 149.191 363.562 138.422 410.857 173.461C415.565 176.951 438.266 194.295 452.362 226.411C480.028 289.44 449.372 351.914 444.448 361.546C305.119 361.546 165.791 361.546 26.462 361.559V361.546Z" fill="#FFB71B"/>
<path d="M140.032 287.029C138.703 287.686 136.44 288.898 133.914 290.825C126.322 296.607 125.534 301.805 118.394 305.513C117.241 306.112 114.744 307.28 111.357 307.835C106.013 308.696 101.589 307.513 99.1945 306.667C99.1945 306.667 92.0986 291.351 120.686 282.985L121.927 287.686C122.643 286.387 123.358 285.072 124.074 283.773C125.534 283.335 127.695 282.882 130.294 283.087C135.229 283.452 138.645 285.919 140.017 287.029H140.032Z" stroke="#231F20" stroke-width="1.46005" stroke-miterlimit="10"/>
<path d="M128.177 233.459C125.972 241.037 122.526 245.549 119.708 248.294C115.445 252.455 112.408 252.791 106.028 258.923C102.626 262.208 100.363 264.413 98.7275 268.048C96.1286 273.844 96.8148 279.495 97.4573 282.532C97.4573 282.532 109.941 281.262 121.022 271.508L117.84 266.106L123.271 268.997C123.271 268.997 133.827 253.375 128.162 233.474L128.177 233.459Z" stroke="#231F20" stroke-width="1.46005" stroke-miterlimit="10"/>
<path d="M88.9746 259.551C110.452 253.827 117.504 230.978 117.504 230.978C116.818 229.81 107.094 227.386 107.094 227.386L119.665 225.035C119.665 225.035 121.87 221.444 120.22 213.866C118.57 206.317 123.286 195.484 123.286 195.484C114.219 197.981 107.532 201.645 103.283 204.39C96.7421 208.61 86.8575 215.005 83.2366 226.714C82.492 229.109 82.1854 231.168 82.054 232.555L86.6677 238.424L81.835 236.365C81.8642 249.316 88.9746 259.551 88.9746 259.551Z" stroke="#231F20" stroke-width="1.46005" stroke-miterlimit="10"/>
<path d="M70.3593 272.473C70.3593 272.473 87.398 236.877 38.647 226.131C38.647 226.131 44.239 231.81 43.9032 243.432C43.5527 255.054 47.1153 256.792 47.1153 256.792L56.0508 255.186L48.9549 262.281C48.9549 262.281 59.1753 274.59 70.3593 272.473Z" stroke="#231F20" stroke-width="1.46005" stroke-miterlimit="10"/>
<path d="M40.0048 285.452C40.0048 285.452 71.9507 273.013 71.9799 301.571C71.9799 301.571 62.1246 311.31 51.8166 297.702L54.1673 292.198L49.7288 293.322C49.7288 293.322 43.3337 286.168 39.9902 285.438L40.0048 285.452Z" stroke="#231F20" stroke-width="1.46005" stroke-miterlimit="10"/>
<path d="M85.1487 329.151H85.1779C85.4991 329.093 85.7181 328.772 85.6597 328.45C79.2939 295.439 51.772 287.671 51.4946 287.598C51.1733 287.511 50.8375 287.7 50.7645 288.022C50.6769 288.343 50.8667 288.664 51.1879 288.752C51.4507 288.825 78.2719 296.417 84.4917 328.669C84.5501 328.976 84.8421 329.195 85.1633 329.151H85.1487Z" fill="#231F20"/>
<path d="M86.0099 335.546C86.3311 335.502 86.5647 335.21 86.5209 334.889C84.6082 315.894 80.1843 297.278 73.4096 279.539C68.4309 266.53 62.1527 253.929 54.7356 242.088C54.5604 241.811 54.1954 241.723 53.9034 241.899C53.626 242.074 53.5384 242.439 53.7136 242.731C61.0868 254.499 67.3358 267.026 72.2708 279.962C79.0162 297.6 83.3964 316.128 85.309 335.006C85.3382 335.342 85.6303 335.575 85.9661 335.546H85.9807H86.0099Z" fill="#231F20"/>
<path d="M87.9827 348.658C87.9827 348.658 88.0119 348.658 88.0265 348.658C88.3477 348.585 88.5667 348.278 88.4937 347.942C83.4711 323.341 82.9309 298.461 86.9315 274.006C89.4573 258.514 93.8229 243.272 99.8821 228.671C100.014 228.364 99.8675 228.014 99.5609 227.883C99.2543 227.751 98.9039 227.897 98.7725 228.204C92.6695 242.877 88.2893 258.222 85.7488 273.801C81.7337 298.403 82.2739 323.428 87.3257 348.176C87.3841 348.483 87.6761 348.687 87.9973 348.643L87.9827 348.658Z" fill="#231F20"/>
<path d="M86.4193 338.247C86.726 338.203 86.9596 337.926 86.9304 337.605C85.8353 321.807 87.0472 292.037 107.298 270.107C110.496 266.646 114.087 263.478 117.956 260.689C118.219 260.5 118.292 260.12 118.088 259.857C117.898 259.58 117.518 259.536 117.256 259.726C113.313 262.558 109.663 265.785 106.407 269.304C85.8353 291.569 84.6235 321.705 85.7185 337.692C85.7331 338.028 86.0251 338.276 86.3609 338.247C86.3609 338.247 86.3901 338.247 86.4047 338.247H86.4193Z" fill="#231F20"/>
<path d="M83.4413 338.656C83.6896 338.627 83.9086 338.423 83.9524 338.16C85.2518 330.159 88.8581 318.449 98.7135 308.039C104.364 302.068 111.445 297.322 119.227 294.286C119.534 294.169 119.694 293.818 119.563 293.512C119.446 293.205 119.096 293.059 118.789 293.176C110.861 296.271 103.619 301.133 97.8374 307.222C87.7777 317.851 84.0838 329.809 82.7697 337.97C82.7113 338.291 82.9449 338.613 83.2661 338.656C83.3245 338.656 83.3829 338.656 83.4413 338.656Z" fill="#231F20"/>
<path d="M62.0957 331.911L67.8775 361.491H102.86L108.657 331.911H62.0957ZM64.0814 333.546H106.656L101.517 359.841H69.2499L64.096 333.546H64.0814Z" fill="#231F20"/>
<path d="M64.0811 333.546L69.235 359.842H101.502L106.656 333.546H64.0811Z" fill="white"/>
<path d="M61.7596 331.911H108.963C109.62 331.911 110.204 331.473 110.394 330.831L112.365 324.129C112.642 323.18 111.927 322.216 110.934 322.216H59.8031C58.8103 322.216 58.0949 323.18 58.3723 324.129L60.3433 330.831C60.5331 331.473 61.1172 331.911 61.7742 331.911H61.7596Z" fill="#231F20"/>
<path d="M11.1468 363.129H457.191C458.07 363.129 458.773 362.425 458.773 361.546C458.773 360.666 458.07 359.963 457.191 359.963H11.1468C10.2674 359.963 9.56396 360.666 9.56396 361.546C9.56396 362.425 10.2674 363.129 11.1468 363.129Z" fill="#231F20"/>
<path d="M286.923 60.7018V169.713C286.923 172.987 284.244 175.639 280.998 175.639H42.736C39.4621 175.639 36.8105 172.974 36.8105 169.713V60.7018C36.8105 57.4279 39.4756 54.7764 42.736 54.7764H280.998C284.258 54.7764 286.923 57.4415 286.923 60.7018Z" fill="#231F20"/>
<path d="M278.346 52.6929H39.7869C36.9776 52.6929 34.7002 54.9702 34.7002 57.7795V167.075C34.7002 169.884 36.9776 172.162 39.7869 172.162H278.346C281.155 172.162 283.433 169.884 283.433 167.075V57.7795C283.433 54.9702 281.155 52.6929 278.346 52.6929Z" fill="white"/>
<path d="M278.198 172.852H39.9497C36.6758 172.852 34.0107 170.187 34.0107 166.913V57.9282C34.0107 54.6543 36.6758 51.9893 39.9497 51.9893H278.211C281.485 51.9893 284.15 54.6543 284.15 57.9282V166.926C284.15 170.2 281.485 172.865 278.211 172.865L278.198 172.852ZM39.9497 53.3827C37.4469 53.3827 35.4042 55.4255 35.4042 57.9282V166.926C35.4042 169.429 37.4469 171.472 39.9497 171.472H278.211C280.714 171.472 282.757 169.429 282.757 166.926V57.9282C282.757 55.4255 280.714 53.3827 278.211 53.3827H39.9497Z" fill="#231F20"/>
<path d="M198.352 0.689697H119.78C116.417 0.689697 113.692 3.41528 113.692 6.77746V72.9312C113.692 76.2934 116.417 79.0189 119.78 79.0189H198.352C201.715 79.0189 204.44 76.2934 204.44 72.9312V6.77746C204.44 3.41528 201.715 0.689697 198.352 0.689697Z" fill="white"/>
<path d="M198.178 79.7227H119.957C116.114 79.7227 113.003 76.5976 113.003 72.7691V6.95358C113.003 3.11152 116.128 0 119.957 0H198.178C202.02 0 205.131 3.12505 205.131 6.95358V72.7555C205.131 76.5976 202.006 79.7091 198.178 79.7091V79.7227ZM119.957 1.39342C116.886 1.39342 114.396 3.89617 114.396 6.95358V72.7555C114.396 75.8265 116.899 78.3157 119.957 78.3157H198.178C201.248 78.3157 203.738 75.813 203.738 72.7555V6.95358C203.738 3.88264 201.235 1.39342 198.178 1.39342H119.957Z" fill="#231F20"/>
<path d="M235.137 93.2646H82.9965C74.7554 93.2646 68.0747 99.9454 68.0747 108.186V109.066C68.0747 117.307 74.7554 123.988 82.9965 123.988H235.137C243.378 123.988 250.058 117.307 250.058 109.066V108.186C250.058 99.9454 243.378 93.2646 235.137 93.2646Z" fill="white"/>
<path d="M234.704 124.677H83.4434C74.5823 124.677 67.3853 117.467 67.3853 108.619C67.3853 99.7717 74.5959 92.561 83.4434 92.561H234.704C243.552 92.561 250.762 99.7717 250.762 108.619C250.762 117.467 243.552 124.677 234.704 124.677ZM83.4434 93.9545C75.3535 93.9545 68.7787 100.529 68.7787 108.619C68.7787 116.709 75.3535 123.284 83.4434 123.284H234.704C242.794 123.284 249.369 116.709 249.369 108.619C249.369 100.529 242.794 93.9545 234.704 93.9545H83.4434Z" fill="#231F20"/>
<path d="M188.923 137.665H122.526C117.647 137.665 113.692 141.62 113.692 146.499V147.026C113.692 151.905 117.647 155.86 122.526 155.86H188.923C193.802 155.86 197.757 151.905 197.757 147.026V146.499C197.757 141.62 193.802 137.665 188.923 137.665Z" fill="black"/>
<path d="M181.158 31.6158H175.95V26.7186C175.95 16.8834 167.481 8.98288 157.443 9.91634C148.69 10.728 142.183 18.4257 142.183 27.2056V31.6158H136.961C135.176 31.6158 133.728 33.0634 133.728 34.8491V64.828C133.728 66.6137 135.176 68.0613 136.961 68.0613H181.172C182.958 68.0613 184.405 66.6137 184.405 64.828V34.8626C184.405 33.0769 182.944 31.6158 181.158 31.6158ZM161.096 50.3526V54.33C161.096 55.5475 160.271 56.6839 159.067 56.8868C157.538 57.1439 156.199 55.9534 156.199 54.4652V50.3797C156.199 49.9738 156.063 49.568 155.766 49.2839C154.954 48.5128 154.453 47.4305 154.453 46.24C154.453 43.6967 156.713 41.6809 159.31 42.0868C160.934 42.3438 162.313 43.602 162.706 45.2118C163.071 46.7947 162.543 48.3098 161.502 49.2974C161.218 49.568 161.082 49.9603 161.082 50.3526H161.096ZM168.482 31.6158H149.664V27.1244C149.664 21.5237 154.575 17.0458 160.311 17.7898C165.046 18.4121 168.469 22.6736 168.469 27.4626V31.6294L168.482 31.6158Z" fill="#231F20"/>
<path d="M228.183 104.182L229.955 107.361L226.1 108.7L229.955 109.972L228.061 113.273L224.977 110.54L225.761 114.612H222.122L222.866 110.54L219.782 113.341L217.82 109.986L221.649 108.646L217.888 107.375L219.66 104.195L222.866 106.874L222.055 102.802H225.761L224.977 106.874L228.183 104.195V104.182Z" fill="black"/>
<path d="M202.263 104.182L204.035 107.361L200.179 108.7L204.035 109.972L202.141 113.273L199.056 110.54L199.841 114.612H196.202L196.946 110.54L193.862 113.341L191.9 109.986L195.728 108.646L191.968 107.375L193.74 104.195L196.946 106.874L196.134 102.802H199.841L199.056 106.874L202.263 104.195V104.182Z" fill="black"/>
<path d="M176.329 104.182L178.101 107.361L174.246 108.7L178.101 109.972L176.207 113.273L173.123 110.54L173.907 114.612H170.268L171.012 110.54L167.928 113.341L165.966 109.986L169.795 108.646L166.034 107.375L167.806 104.195L171.012 106.874L170.201 102.802H173.907L173.123 106.874L176.329 104.195V104.182Z" fill="black"/>
<path d="M150.395 104.182L152.167 107.361L148.312 108.7L152.167 109.972L150.273 113.273L147.189 110.54L147.973 114.612H144.334L145.078 110.54L141.994 113.341L140.032 109.986L143.861 108.646L140.1 107.375L141.872 104.195L145.078 106.874L144.267 102.802H147.973L147.189 106.874L150.395 104.195V104.182Z" fill="black"/>
<path d="M124.475 104.182L126.247 107.361L122.391 108.7L126.247 109.972L124.353 113.273L121.268 110.54L122.053 114.612H118.414L119.158 110.54L116.073 113.341L114.112 109.986L117.94 108.646L114.179 107.375L115.952 104.195L119.158 106.874L118.346 102.802H122.053L121.268 106.874L124.475 104.195V104.182Z" fill="black"/>
<path d="M98.5409 104.182L100.313 107.361L96.4576 108.7L100.313 109.972L98.4192 113.273L95.3347 110.54L96.1194 114.612H92.4802L93.2243 110.54L90.1398 113.341L88.1782 109.986L92.0068 108.646L88.2459 107.375L90.0181 104.195L93.2243 106.874L92.4126 102.802H96.1194L95.3347 106.874L98.5409 104.195V104.182Z" fill="black"/>
<path d="M129.899 148.108V150.178H128.465V144.266H130.779C131.482 144.266 132.01 144.442 132.389 144.794C132.754 145.146 132.943 145.619 132.943 146.201C132.943 146.566 132.862 146.891 132.7 147.188C132.537 147.473 132.294 147.703 131.969 147.865C131.645 148.027 131.252 148.108 130.792 148.108H129.913H129.899ZM131.482 146.201C131.482 145.687 131.198 145.43 130.616 145.43H129.886V146.972H130.616C131.185 146.972 131.482 146.715 131.482 146.214V146.201Z" fill="white"/>
<path d="M138.138 149.11H135.919L135.554 150.192H134.052L136.217 144.321H137.867L140.032 150.192H138.517L138.151 149.11H138.138ZM137.773 148.028L137.042 145.863L136.298 148.028H137.773Z" fill="white"/>
<path d="M145.417 149.38C145.254 149.637 145.024 149.854 144.713 150.003C144.402 150.152 144.023 150.233 143.59 150.233C142.927 150.233 142.386 150.07 141.953 149.746C141.52 149.421 141.29 148.975 141.25 148.393H142.765C142.792 148.609 142.86 148.785 143.009 148.92C143.144 149.056 143.32 149.11 143.536 149.11C143.726 149.11 143.861 149.056 143.969 148.961C144.077 148.866 144.131 148.731 144.131 148.555C144.131 148.406 144.077 148.285 143.983 148.176C143.888 148.082 143.766 148.001 143.617 147.933C143.469 147.865 143.266 147.798 143.022 147.703C142.643 147.581 142.346 147.446 142.102 147.324C141.859 147.202 141.656 147.026 141.493 146.783C141.331 146.539 141.236 146.242 141.236 145.863C141.236 145.511 141.331 145.214 141.507 144.957C141.683 144.7 141.926 144.51 142.251 144.361C142.562 144.226 142.927 144.158 143.333 144.158C143.996 144.158 144.51 144.321 144.903 144.632C145.295 144.943 145.511 145.376 145.565 145.917H144.023C143.996 145.728 143.928 145.565 143.807 145.457C143.685 145.349 143.536 145.281 143.347 145.281C143.184 145.281 143.049 145.322 142.941 145.417C142.833 145.511 142.792 145.633 142.792 145.809C142.792 145.944 142.833 146.066 142.927 146.161C143.022 146.255 143.13 146.337 143.279 146.404C143.414 146.472 143.617 146.539 143.874 146.634C144.253 146.769 144.564 146.891 144.808 147.013C145.051 147.135 145.254 147.324 145.43 147.554C145.606 147.798 145.687 148.109 145.687 148.488C145.687 148.799 145.606 149.083 145.444 149.353L145.417 149.38Z" fill="white"/>
<path d="M151.301 149.38C151.139 149.637 150.909 149.854 150.597 150.003C150.286 150.152 149.907 150.233 149.475 150.233C148.812 150.233 148.271 150.07 147.838 149.746C147.405 149.421 147.175 148.975 147.134 148.393H148.649C148.676 148.609 148.744 148.785 148.893 148.92C149.028 149.056 149.204 149.11 149.42 149.11C149.61 149.11 149.745 149.056 149.853 148.961C149.962 148.866 150.016 148.731 150.016 148.555C150.016 148.406 149.962 148.285 149.867 148.176C149.772 148.082 149.65 148.001 149.502 147.933C149.353 147.865 149.15 147.798 148.906 147.703C148.528 147.581 148.23 147.446 147.986 147.324C147.743 147.202 147.54 147.026 147.378 146.783C147.215 146.539 147.121 146.242 147.121 145.863C147.121 145.511 147.215 145.214 147.391 144.957C147.567 144.7 147.811 144.51 148.135 144.361C148.446 144.226 148.812 144.158 149.218 144.158C149.88 144.158 150.394 144.321 150.787 144.632C151.179 144.943 151.396 145.376 151.45 145.917H149.907C149.88 145.728 149.813 145.565 149.691 145.457C149.569 145.349 149.42 145.281 149.231 145.281C149.069 145.281 148.933 145.322 148.825 145.417C148.717 145.511 148.676 145.633 148.676 145.809C148.676 145.944 148.717 146.066 148.812 146.161C148.906 146.255 149.015 146.337 149.163 146.404C149.299 146.472 149.502 146.539 149.759 146.634C150.137 146.769 150.449 146.891 150.692 147.013C150.936 147.135 151.139 147.324 151.314 147.554C151.49 147.798 151.571 148.109 151.571 148.488C151.571 148.799 151.49 149.083 151.328 149.353L151.301 149.38Z" fill="white"/>
<path d="M161.19 144.28L159.783 150.192H158.011L157.064 146.242L156.117 150.192H154.344L152.938 144.28H154.493L155.251 148.555L156.293 144.28H157.848L158.89 148.555L159.661 144.28H161.203H161.19Z" fill="white"/>
<path d="M167.103 144.578C167.563 144.835 167.914 145.2 168.171 145.66C168.429 146.12 168.564 146.634 168.564 147.216C168.564 147.797 168.429 148.311 168.171 148.771C167.914 149.231 167.549 149.597 167.089 149.854C166.629 150.111 166.129 150.246 165.588 150.246C165.046 150.246 164.532 150.111 164.086 149.854C163.626 149.597 163.274 149.231 163.004 148.771C162.733 148.311 162.611 147.784 162.611 147.216C162.611 146.647 162.747 146.12 163.004 145.66C163.274 145.2 163.626 144.835 164.086 144.578C164.546 144.321 165.046 144.185 165.588 144.185C166.129 144.185 166.656 144.321 167.103 144.578ZM164.465 145.971C164.194 146.269 164.045 146.688 164.045 147.216C164.045 147.743 164.181 148.149 164.465 148.447C164.735 148.758 165.114 148.907 165.574 148.907C166.034 148.907 166.413 148.758 166.683 148.447C166.967 148.136 167.103 147.73 167.103 147.216C167.103 146.702 166.967 146.282 166.683 145.985C166.413 145.673 166.034 145.525 165.574 145.525C165.114 145.525 164.735 145.673 164.465 145.985V145.971Z" fill="white"/>
<path d="M173.245 150.179L171.959 147.946H171.635V150.179H170.201V144.267H172.636C173.109 144.267 173.502 144.348 173.826 144.51C174.151 144.672 174.394 144.889 174.557 145.173C174.719 145.457 174.8 145.782 174.8 146.134C174.8 146.566 174.679 146.932 174.449 147.229C174.219 147.527 173.867 147.73 173.42 147.852L174.827 150.179H173.245ZM171.635 146.972H172.514C172.798 146.972 173.001 146.905 173.136 146.783C173.272 146.661 173.339 146.472 173.339 146.228C173.339 145.985 173.272 145.809 173.136 145.674C173.001 145.538 172.798 145.471 172.514 145.471H171.635V146.972Z" fill="white"/>
<path d="M181.294 148.758C181.05 149.205 180.685 149.556 180.225 149.813C179.765 150.057 179.21 150.192 178.588 150.192H176.356V144.28H178.588C179.224 144.28 179.779 144.402 180.239 144.646C180.699 144.889 181.05 145.241 181.307 145.687C181.551 146.134 181.673 146.648 181.673 147.229C181.673 147.811 181.551 148.325 181.307 148.772L181.294 148.758ZM179.752 148.461C180.063 148.163 180.212 147.757 180.212 147.216C180.212 146.675 180.063 146.269 179.752 145.971C179.44 145.674 179.008 145.525 178.453 145.525H177.776V148.893H178.453C179.008 148.893 179.44 148.745 179.752 148.447V148.461Z" fill="white"/>
<path d="M363.439 337.803L362.803 351.791L354.023 350.601L355.309 334.15L363.439 337.803Z" fill="white"/>
<path d="M353.374 351.128L354.767 333.23L364.075 337.411L363.385 352.481L353.374 351.128ZM355.85 335.057L354.686 350.06L362.222 351.074L362.817 338.168L355.85 335.043V335.057Z" fill="#231F20"/>
<path d="M420.475 340.645L422.031 349.33H414.347L412.615 338.629L420.475 340.645Z" fill="white"/>
<path d="M411.857 337.803L421.003 340.144L422.761 349.938H413.833L411.857 337.803ZM419.934 341.131L413.359 339.454L414.861 348.707H421.287L419.934 341.131Z" fill="#231F20"/>
<path d="M411.966 349.356V358.678H442.486C442.391 357.703 441.674 356.892 440.714 356.648C438.035 355.958 434.897 354.93 431.542 353.347C427.943 351.656 425.008 349.762 422.735 348.071H413.251C412.548 348.071 411.953 348.653 411.953 349.37L411.966 349.356Z" fill="#231F20"/>
<path d="M333.19 358.935H364.63C364.549 355.796 364.495 352.671 364.413 349.532C364.413 348.802 363.805 348.22 363.074 348.207C359.597 348.166 356.107 348.112 352.617 348.071C352.265 348.071 351.927 348.193 351.656 348.409C349.762 349.952 347.354 351.656 344.391 353.199C340.915 354.998 337.654 356.08 334.949 356.743C333.92 357 333.203 357.893 333.19 358.935Z" fill="#231F20"/>
<path d="M411.966 358.664V360.382H442.513V358.921C442.513 358.827 442.513 358.745 442.5 358.664H411.98H411.966Z" fill="#231F20"/>
<path d="M333.19 358.935V360.396C343.688 360.517 354.172 360.639 364.67 360.761C364.67 360.152 364.643 359.543 364.63 358.935H333.19Z" fill="#231F20"/>
<path d="M364.631 358.935C364.631 359.543 364.658 360.152 364.671 360.761V358.935H364.631Z" fill="#231F20"/>
<path d="M422.748 342.498L411.127 250.802L402.483 164.437H355.282C353.131 196.148 350.994 227.845 348.843 259.555C350.236 286.68 351.616 313.817 353.01 340.942C357.149 341.537 361.275 342.132 365.415 342.741C366.443 315.657 367.485 288.574 368.513 261.503C372.098 244.742 375.683 227.966 379.268 211.205C383.178 227.425 387.087 243.632 390.984 259.853C397.356 287.491 403.727 315.116 410.113 342.755C414.334 342.673 418.541 342.592 422.762 342.511L422.748 342.498Z" fill="#231F20"/>
<path d="M396.923 176.734C397.194 178.06 397.748 179.345 398.506 180.468C399.588 182.024 400.901 182.998 401.996 183.593L402.767 179.358C402.767 179.291 402.822 179.21 402.849 179.156L405.04 175.584L401.442 172.946L400.698 173.311L396.91 176.748L396.923 176.734Z" fill="white"/>
<path d="M395.651 176.612C395.935 178.236 396.584 179.818 397.504 181.158C398.979 183.295 400.873 184.459 402.212 185.054C402.28 185.095 402.375 185.108 402.456 185.108C402.55 185.108 402.645 185.081 402.753 185.04C402.916 184.959 403.037 184.797 403.065 184.608L403.957 179.683L406.379 175.746C406.555 175.476 406.474 175.124 406.217 174.921L401.874 171.729C401.685 171.58 401.441 171.566 401.252 171.661L400.088 172.229C400.088 172.229 399.994 172.297 399.939 172.324L395.827 176.044C395.665 176.193 395.597 176.396 395.637 176.612H395.651ZM398.505 180.468C397.734 179.359 397.18 178.073 396.923 176.734L400.711 173.298L401.455 172.933L405.053 175.571L402.862 179.142C402.862 179.142 402.794 179.277 402.78 179.345L402.009 183.579C400.914 182.984 399.588 181.997 398.519 180.454L398.505 180.468Z" fill="#231F20"/>
<path d="M308.487 88.5431L309.407 88.1372H308.487V88.5431Z" fill="#FF94AF"/>
<path d="M367.755 59.9847C363.886 56.7109 363.182 54.3705 363.439 52.7471C363.845 50.2173 366.93 47.1057 366.903 47.1463C370.799 43.7642 373.897 43.169 375.994 43.2366C379.349 43.3584 379.741 45.1712 384.963 46.1452C389.346 46.9569 391.091 46.064 392.999 47.7686C394 48.6615 394.5 50.0008 395.488 52.6794C396.516 55.4663 397.03 56.8732 396.814 58.4425C396.53 60.4718 395.285 62.6904 393.635 64.1244C392.566 65.0579 391.551 65.6666 390.915 67.0601C390.794 67.3306 390.577 67.8718 390.307 67.8582C390.198 67.8582 389.982 67.7635 389.657 66.6001C389.373 65.599 389.333 64.9361 389.157 63.6509C388.994 62.5145 388.981 62.1087 388.737 61.4593C388.44 60.6341 388.034 60.0659 387.966 59.9712C386.383 57.8473 378.686 61.784 370.149 60.4582C369.094 60.2959 368.255 60.0794 367.755 59.9442V59.9847Z" fill="#231F20"/>
<path d="M382.636 69.0351C382.501 69.9686 381.973 70.6585 381.473 70.5773C380.972 70.4962 380.661 69.6845 380.81 68.7645C380.945 67.8311 381.473 67.1411 381.973 67.2223C382.474 67.3035 382.785 68.1152 382.636 69.0351Z" fill="#231F20"/>
<path d="M373.938 67.9394C373.803 68.8729 373.275 69.5628 372.774 69.4816C372.274 69.4005 371.963 68.5888 372.112 67.6688C372.247 66.7354 372.774 66.0454 373.275 66.1266C373.776 66.2078 374.087 67.0195 373.938 67.9394Z" fill="#231F20"/>
<path d="M374.141 77.409C374.141 77.409 377.726 78.2749 379.809 78.2207C379.809 78.2207 379.173 80.7505 376.305 80.0877C374.141 79.5871 374.141 77.3955 374.141 77.3955V77.409Z" fill="#231F20"/>
<path d="M385.072 66.8302C385.167 66.8302 385.262 66.8031 385.356 66.749C385.586 66.6002 385.64 66.289 385.492 66.0591C385.41 65.9508 383.598 63.3128 380.662 64.0569C380.391 64.1245 380.243 64.3951 380.31 64.6656C380.378 64.9362 380.648 65.085 380.919 65.0174C383.165 64.4357 384.612 66.519 384.68 66.6137C384.775 66.749 384.937 66.8302 385.086 66.8302H385.072Z" fill="#231F20"/>
<path d="M375.899 64.9224C376.034 64.9224 376.17 64.8683 376.278 64.7601C376.454 64.5572 376.44 64.246 376.237 64.0566C373.965 62.0409 371.151 63.5696 371.029 63.6372C370.785 63.7725 370.704 64.0702 370.84 64.3137C370.975 64.5572 371.272 64.6383 371.516 64.5031C371.611 64.4489 373.843 63.2585 375.588 64.8007C375.683 64.8819 375.804 64.9224 375.913 64.9224H375.899Z" fill="#231F20"/>
<path d="M377.523 74.514C377.726 74.514 377.915 74.3923 377.996 74.1758C378.091 73.9188 377.956 73.6347 377.685 73.54L375.169 72.6606C377.631 68.5074 377.658 68.3992 377.685 68.3451C377.766 68.088 377.631 67.8039 377.374 67.7092C377.13 67.6281 376.86 67.7498 376.765 67.9798C376.63 68.2369 375.047 70.9155 374.019 72.6742C373.938 72.7959 373.924 72.9583 373.978 73.0935C374.032 73.2288 374.141 73.3371 374.276 73.3912L377.36 74.4734C377.36 74.4734 377.469 74.5005 377.523 74.5005V74.514Z" fill="#231F20"/>
<path d="M395.325 95.483C394.351 92.8721 393.526 90.7481 392.971 89.287L392.62 88.3942C392.579 88.2995 392.552 88.2048 392.511 88.1236L392.295 87.5554L392.119 87.109L392.051 86.9196V86.8925C391.808 86.2432 391.673 85.8103 391.524 85.2421C391.389 84.6874 391.077 83.4022 390.956 79.479C390.888 77.4227 390.902 75.3258 390.996 73.2289C391.686 72.9313 392.931 72.2819 393.973 71.0102C394.825 69.9956 395.231 68.8998 395.149 67.8311C395.068 66.7082 394.581 65.7612 393.783 65.1795C392.796 64.4354 391.646 64.476 390.929 64.5978L389.4 58.0771C389.332 57.8065 389.116 57.6307 388.845 57.6036L379.078 56.9137L369.337 56.0614C369.013 56.0343 368.715 56.2778 368.674 56.616C368.336 59.9575 368.079 63.3938 367.917 66.8029C367.822 69.0351 367.768 70.9696 367.768 72.6336C367.768 81.0347 368.972 82.604 370.23 83.4022C371.597 84.2545 373.45 84.3221 375.75 83.5916C375.574 84.7821 375.425 85.9591 375.29 87.1225C375.263 87.3254 375.236 87.5419 375.222 87.7583C375.168 88.1236 375.141 88.4753 375.1 88.8271C374.803 91.7086 374.627 94.6307 374.532 97.5258C374.532 97.7964 374.708 98.0399 374.952 98.1211L386.194 101.923C386.194 101.923 386.329 101.963 386.383 101.963C386.505 101.963 386.627 101.923 386.721 101.855L395.082 96.2271C395.312 96.0648 395.406 95.7807 395.312 95.5101L395.325 95.483ZM386.302 100.637L375.777 97.0794C375.844 94.5496 376.007 92.0062 376.25 89.4764C376.318 88.7189 376.399 87.9613 376.48 87.2172C376.48 87.0819 376.521 86.9466 376.534 86.8114C376.697 85.4856 376.886 84.0922 377.103 82.7258C377.143 82.5093 377.049 82.2794 376.886 82.1576C376.71 82.0223 376.48 81.9817 376.277 82.0764C374.965 82.5905 373.829 82.8475 372.868 82.8475C372.084 82.8475 371.421 82.6717 370.893 82.3335C370.176 81.887 368.499 80.8318 369.148 66.83C369.297 63.6373 369.527 60.4446 369.838 57.306L378.997 58.1177L388.304 58.7671L389.873 65.4771C389.914 65.653 390.036 65.7883 390.185 65.8694C390.347 65.9506 390.523 65.9641 390.685 65.91C390.753 65.91 392.065 65.423 393.053 66.1535C393.743 66.6676 393.891 67.4793 393.932 67.9258C394 68.6563 393.675 69.4545 393.039 70.2256C391.889 71.5919 390.469 72.1466 390.185 72.2278C389.955 72.3089 389.792 72.5389 389.779 72.7824C389.67 75.0281 389.657 77.3009 389.711 79.5196C389.846 83.5781 390.171 84.958 390.32 85.5397C390.401 85.8914 390.496 86.189 390.59 86.5002C390.78 87.0819 391.037 87.7178 391.47 88.8406L391.821 89.747C392.349 91.1134 393.107 93.075 394.013 95.4695L386.302 100.651V100.637Z" fill="#231F20"/>
<path d="M432.123 144.659C432.096 144.997 432.042 145.376 431.947 145.781C431.852 146.201 431.744 146.58 431.622 146.904C431.406 147.5 431.054 148.041 430.648 148.501C422.383 157.971 414.117 167.427 405.851 176.897C404.796 176.166 403.713 175.382 402.618 174.556C401.63 173.799 400.67 173.055 399.763 172.324L416.592 147.838C417.458 146.566 417.648 144.956 417.052 143.522C413.711 135.459 410.41 127.396 407.082 119.334C407.001 119.144 406.92 118.955 406.839 118.765C406.771 119.022 406.676 119.279 406.609 119.536C406.568 119.672 406.527 119.807 406.487 119.942C406.446 120.078 406.419 120.199 406.379 120.335C406.27 120.713 406.176 121.065 406.067 121.43C406.067 121.43 406.067 121.439 406.067 121.457C404.931 125.516 403.876 130.143 403.091 135.311C402.794 137.286 402.536 139.355 402.334 141.479C401.36 151.693 401.901 160.568 402.821 167.481C397.572 169.267 389.63 171.296 379.836 171.309C369.162 171.309 360.626 168.969 355.214 166.994C355.309 162.313 355.336 157.483 355.268 152.519C355.174 147.107 354.957 141.831 354.66 136.745C354.457 133.2 354.2 129.737 353.888 126.368C353.888 126.314 353.888 126.274 353.888 126.233C350.561 132.578 347.233 138.923 343.891 145.281C342.132 148.622 337.519 149.096 335.125 146.174C326.237 135.365 317.362 124.569 308.487 113.76C309.921 112.163 309.529 112.596 310.949 111C319.621 116.695 328.279 122.391 336.965 128.073C340.996 117.521 345.88 107.889 351.44 99.068C351.494 98.9869 351.535 98.8922 351.602 98.811C351.805 98.4863 352.211 97.9587 352.82 97.4311C353.523 96.8494 354.254 96.5247 354.565 96.3894C355.891 95.8347 363.927 92.845 375.06 88.7729C375.372 88.6647 375.683 88.5565 376.007 88.4347C377.333 88.4077 378.645 88.3806 379.971 88.3671C380.932 88.6377 382.055 88.8135 383.259 88.8271H383.34C384.787 88.8271 386.086 88.5835 387.195 88.2183C388.467 88.1912 389.725 88.1642 390.997 88.1506C391.321 88.2724 391.66 88.3941 391.984 88.5159C398.979 91.0863 405.973 93.6431 412.94 96.2135C416.701 97.5799 419.582 100.664 420.719 104.506L431.934 142.805C432.11 143.4 432.177 144.036 432.123 144.659Z" fill="white"/>
<path d="M432.529 142.629L421.314 104.317C420.123 100.313 417.093 97.0523 413.17 95.6318L392.58 88.0695L391.213 87.5689C391.213 87.5689 391.064 87.5283 390.997 87.5283L388.792 87.5824C388.318 87.7989 387.777 88.0289 387.209 88.2183C386.1 88.5835 384.787 88.8271 383.353 88.8271H383.272C382.068 88.8271 380.945 88.6377 379.985 88.3671C379.403 88.1912 378.862 88.0018 378.375 87.7854L376.021 87.8395C375.953 87.8395 375.886 87.8395 375.831 87.8801C375.52 87.9883 375.223 88.0965 374.925 88.2047C363.927 92.2227 355.742 95.2665 354.362 95.8483C353.659 96.1459 353.009 96.5247 352.454 96.9847C351.94 97.4176 351.494 97.9316 351.115 98.4863L351.007 98.6622C345.366 107.645 340.563 117.21 336.694 127.166L311.315 110.513C311.071 110.351 310.733 110.405 310.53 110.621L308.054 113.368C307.865 113.597 307.851 113.936 308.054 114.166L334.692 146.593C335.95 148.122 337.871 148.907 339.846 148.704C341.808 148.514 343.539 147.337 344.459 145.592L353.496 128.411C353.726 131.211 353.929 134.039 354.091 136.826C354.403 142.061 354.605 147.364 354.7 152.586C354.768 157.335 354.768 162.191 354.646 167.035C354.646 167.305 354.808 167.535 355.052 167.616C363.007 170.498 371.313 171.972 379.768 171.972H379.876C387.276 171.972 394.622 170.809 401.684 168.577L399.317 172.027C399.127 172.297 399.181 172.649 399.425 172.852C400.345 173.596 401.292 174.353 402.293 175.111C403.389 175.936 404.485 176.734 405.54 177.465C405.634 177.533 405.756 177.573 405.878 177.573C406.054 177.573 406.216 177.505 406.338 177.37L431.135 148.974C431.609 148.433 431.974 147.824 432.218 147.175C432.353 146.796 432.475 146.377 432.569 145.971C432.651 145.538 432.718 145.146 432.759 144.767C432.827 144.077 432.759 143.387 432.556 142.683L432.529 142.629ZM390.902 88.7594L391.349 88.9353L412.737 96.7817C416.295 98.0805 419.055 101.03 420.137 104.682L431.352 142.981C431.514 143.536 431.568 144.077 431.528 144.605C431.487 144.929 431.447 145.281 431.352 145.66C431.257 146.039 431.163 146.39 431.041 146.715C430.851 147.215 430.567 147.689 430.188 148.122L405.743 176.112C404.836 175.463 403.916 174.786 402.983 174.083C402.158 173.461 401.359 172.825 400.588 172.216L417.107 148.203C418.094 146.742 418.284 144.916 417.621 143.306C414.279 135.243 410.978 127.18 407.65 119.117L407.42 118.549C407.312 118.305 407.068 118.157 406.825 118.17C406.568 118.17 406.351 118.359 406.27 118.603L405.81 120.145C405.81 120.145 405.81 120.186 405.81 120.213C405.702 120.578 405.607 120.93 405.499 121.295C404.228 125.841 403.226 130.535 402.523 135.243C402.212 137.286 401.955 139.369 401.752 141.452C400.94 149.948 401.075 158.566 402.185 167.089C394.961 169.483 387.452 170.701 379.863 170.714H379.755C371.597 170.714 363.561 169.321 355.877 166.588C355.972 161.88 355.985 157.159 355.918 152.546C355.823 147.297 355.607 141.98 355.309 136.731C355.106 133.281 354.849 129.791 354.538 126.328V126.206C354.497 125.935 354.308 125.705 354.037 125.651C353.78 125.584 353.51 125.719 353.374 125.962L343.363 144.997C342.646 146.39 341.28 147.324 339.711 147.473C338.128 147.635 336.613 146.999 335.612 145.781L309.326 113.773L311.098 111.812L336.653 128.587C336.816 128.682 337.005 128.709 337.181 128.655C337.357 128.587 337.492 128.465 337.56 128.289C341.442 118.129 346.299 108.416 351.981 99.3792L352.143 99.1357C352.454 98.6757 352.82 98.2563 353.239 97.9046C353.699 97.5123 354.227 97.2011 354.822 96.9576C356.202 96.3894 364.549 93.2779 375.75 89.1923C375.886 89.1382 376.007 89.0976 376.143 89.0435L390.929 88.7594H390.902ZM416.105 147.486L403.267 166.155C402.279 157.971 402.171 149.691 402.956 141.547C403.145 139.491 403.402 137.421 403.7 135.405C404.403 130.751 405.405 126.098 406.663 121.62C406.757 121.268 406.852 120.93 406.96 120.592C410.139 128.316 413.332 136.028 416.511 143.752C417.012 144.983 416.863 146.377 416.105 147.486Z" fill="#231F20"/>
<path d="M391.538 89.0029C390.063 89.6387 388.197 90.261 385.951 90.5992C385.017 90.7345 384.138 90.8022 383.326 90.8292H383.232C380.296 90.8022 377.901 89.9093 376.251 89.0435C376.319 88.2859 376.4 87.5283 376.481 86.7842C376.481 86.6489 376.522 86.5137 376.535 86.3784C377.009 86.6895 377.617 87.0277 378.348 87.3254C378.835 87.5418 379.376 87.7447 379.958 87.9071C380.918 88.1777 382.041 88.3535 383.245 88.367H383.326C384.774 88.367 386.073 88.1235 387.182 87.7583C387.967 87.5012 388.589 87.2036 388.765 87.1224C389.455 86.7842 390.023 86.4325 390.469 86.1213C390.821 87.0819 391.173 88.0288 391.525 88.9894L391.538 89.0029Z" fill="#231F20"/>
<path d="M330.971 82.2799L339.981 119.361C340.143 120.024 339.684 120.66 339.007 120.727L310.692 123.325C310.151 123.379 309.651 123.014 309.515 122.486L300.505 85.4049C300.343 84.742 300.803 84.1062 301.479 84.0385L329.794 81.4411C330.335 81.387 330.836 81.7522 330.971 82.2799Z" fill="white"/>
<path d="M308.921 122.621L299.911 85.54C299.789 85.0529 299.897 84.5389 300.181 84.133C300.465 83.7272 300.925 83.4701 301.426 83.416L329.741 80.8186C330.58 80.7509 331.364 81.3056 331.567 82.1173L340.577 119.199C340.699 119.686 340.591 120.2 340.306 120.605C340.022 121.011 339.562 121.268 339.062 121.322L310.747 123.92C310.747 123.92 310.639 123.92 310.598 123.92C309.813 123.92 309.11 123.379 308.921 122.608V122.621ZM330.377 82.4284C330.323 82.1985 330.093 82.0226 329.849 82.0496L301.534 84.6471C301.331 84.6606 301.223 84.7824 301.182 84.85C301.128 84.9177 301.061 85.0665 301.101 85.2559L310.111 122.337C310.165 122.567 310.395 122.743 310.639 122.716L338.954 120.118C339.157 120.105 339.265 119.983 339.305 119.916C339.346 119.848 339.427 119.699 339.386 119.51L330.377 82.4284Z" fill="#231F20"/>
<path d="M318.714 105.521C320.373 105.521 321.718 104.177 321.718 102.518C321.718 100.86 320.373 99.5149 318.714 99.5149C317.056 99.5149 315.711 100.86 315.711 102.518C315.711 104.177 317.056 105.521 318.714 105.521Z" fill="#231F20"/>
<path d="M304.632 108.538C305.214 110.243 305.471 110.946 305.985 111.136C306.702 111.393 307.825 110.757 309.678 109.025C310.463 108.295 311.031 107.753 311.45 106.806C311.572 106.522 312.627 103.993 311.477 102.437C311.302 102.207 311.072 101.882 310.706 101.787C310.639 101.76 310.558 101.747 310.49 101.747C310.179 101.747 309.813 101.936 309.205 102.315C308.867 102.518 308.474 102.761 308.001 102.991C306.756 103.614 305.877 103.776 305.295 103.884C304.984 103.952 304.74 103.979 304.659 104.047C304.659 104.047 304.578 104.128 304.497 104.236C304.186 104.682 303.807 106.171 304.619 108.511L304.632 108.538Z" fill="white"/>
<path d="M302.927 105.927C302.927 106.766 303.09 107.78 303.482 108.944C304.131 110.851 304.497 111.907 305.579 112.299C305.836 112.38 306.093 112.434 306.35 112.434C307.567 112.434 308.893 111.46 310.517 109.931C311.342 109.16 312.059 108.484 312.573 107.334C312.83 106.766 313.993 103.817 312.465 101.747C312.235 101.436 311.815 100.867 311.044 100.651C310.138 100.38 309.407 100.813 308.582 101.314C308.271 101.503 307.906 101.733 307.473 101.936C306.391 102.491 305.633 102.626 305.105 102.721C304.645 102.802 304.253 102.883 303.901 103.167C303.834 103.221 303.685 103.37 303.522 103.6C303.211 104.074 302.954 104.885 302.954 105.954L302.927 105.927ZM304.51 104.263C304.578 104.155 304.672 104.074 304.672 104.074C304.754 104.006 304.984 103.979 305.308 103.911C305.876 103.803 306.769 103.641 308.014 103.018C308.474 102.788 308.866 102.558 309.218 102.342C309.827 101.963 310.178 101.774 310.503 101.774C310.571 101.774 310.652 101.774 310.72 101.814C311.085 101.909 311.315 102.234 311.491 102.464C312.641 104.019 311.585 106.549 311.464 106.833C311.044 107.78 310.476 108.308 309.691 109.052C307.838 110.784 306.715 111.419 305.998 111.162C305.484 110.973 305.227 110.27 304.645 108.565C303.834 106.225 304.199 104.736 304.524 104.29L304.51 104.263Z" fill="#231F20"/>
</g>
<defs>
<clipPath id="clip0_1902_1904">
<rect width="463.793" height="363.128" fill="white"/>
</clipPath>
</defs>
</svg>
