<svg xmlns="http://www.w3.org/2000/svg" xmlns:xlink="http://www.w3.org/1999/xlink" width="32.098" height="32.098" viewBox="0 0 32.098 32.098">
  <defs>
    <linearGradient id="linear-gradient" x1="0.146" y1="0.146" x2="0.854" y2="0.854" gradientUnits="objectBoundingBox">
      <stop offset="0" stop-color="#00baff"/>
      <stop offset="1" stop-color="#0068ef"/>
    </linearGradient>
  </defs>
  <g id="Group_21613" data-name="Group 21613" transform="translate(9243 22241.098)">
    <g id="Layer_6" transform="translate(-9243 -22241.098)">
      <path id="Path_77071" data-name="Path 77071" d="M19.049,35.1A16.049,16.049,0,1,1,35.1,19.049,16.049,16.049,0,0,1,19.049,35.1Z" transform="translate(-3 -3)" fill="url(#linear-gradient)"/>
    </g>
    <g id="Search_results_for_Color_-_Flaticon-2_2_" data-name="Search results for Color - Flaticon-2 (2)" transform="translate(-9234.727 -22232.824)">
      <g id="Group_21612" data-name="Group 21612">
        <g id="Group_21611" data-name="Group 21611">
          <path id="Path_77113" data-name="Path 77113" d="M7.776,0a7.776,7.776,0,0,0,0,15.552,1.294,1.294,0,0,0,1.3-1.3,1.267,1.267,0,0,0-.337-.868,1.3,1.3,0,0,1,.972-2.156h1.525a4.322,4.322,0,0,0,4.32-4.32C15.552,3.093,12.07,0,7.776,0ZM3.024,7.776a1.3,1.3,0,1,1,1.3-1.3A1.294,1.294,0,0,1,3.024,7.776ZM5.616,4.32a1.3,1.3,0,1,1,1.3-1.3A1.294,1.294,0,0,1,5.616,4.32Zm4.32,0a1.3,1.3,0,1,1,1.3-1.3A1.294,1.294,0,0,1,9.936,4.32Zm2.592,3.456a1.3,1.3,0,1,1,1.3-1.3A1.294,1.294,0,0,1,12.528,7.776Z" fill="#fff"/>
        </g>
      </g>
    </g>
  </g>
</svg>
