<svg xmlns="http://www.w3.org/2000/svg" width="19.266" height="17.661" viewBox="0 0 19.266 17.661">
  <g id="Polygon_81" data-name="Polygon 81" fill="#fff">
    <path d="M 14.93610954284668 16.78433227539062 L 9.853355407714844 14.28947830200195 L 9.633045196533203 14.18132877349854 L 9.412734985351562 14.28947830200195 L 4.329980373382568 16.78433227539062 L 5.216665267944336 11.38110828399658 L 5.259145259857178 11.12227821350098 L 5.070325374603271 10.94020843505859 L 1.07455313205719 7.087296485900879 L 6.674185276031494 6.231308460235596 L 6.92295503616333 6.193278312683105 L 7.040615081787109 5.970818519592285 L 9.633045196533203 1.069404125213623 L 12.2254753112793 5.970818519592285 L 12.34313488006592 6.193278312683105 L 12.59190559387207 6.231308460235596 L 18.1915454864502 7.087296485900879 L 14.19576549530029 10.94020843505859 L 14.00694561004639 11.12227821350098 L 14.04942512512207 11.38110828399658 L 14.93610954284668 16.78433227539062 Z" stroke="none"/>
    <path d="M 9.633045196533203 2.138828277587891 L 7.247284889221191 6.649508476257324 L 2.14909553527832 7.42884635925293 L 5.795015335083008 10.94440841674805 L 4.98046875 15.90804862976074 L 9.633045196533203 13.62434864044189 L 14.28562164306641 15.90804862976074 L 13.4710750579834 10.94440841674805 L 17.11698722839355 7.42884635925293 L 12.0188045501709 6.649508476257324 L 9.633045196533203 2.138828277587891 M 9.633045196533203 -1.9073486328125e-06 L 12.66745567321777 5.737048149108887 L 19.26608467102051 6.745748519897461 L 14.54282569885254 11.30013847351074 L 15.58659553527832 17.66059875488281 L 9.633045196533203 14.73831844329834 L 3.679494857788086 17.66059875488281 L 4.723265647888184 11.30013847351074 L -5.7220458984375e-06 6.745748519897461 L 6.598634719848633 5.737048149108887 L 9.633045196533203 -1.9073486328125e-06 Z" stroke="none" fill="#707070"/>
  </g>
</svg>
