<svg xmlns="http://www.w3.org/2000/svg" width="35.433" height="29.413" viewBox="0 0 35.433 29.413">
  <g id="Component_3_46" data-name="Component 3 – 46" transform="translate(0.25 0.256)">
    <path id="Path_196" data-name="Path 196" d="M17.993,4.922,15.039,2.3,9.738.849,4.381,3.024,1.815,6.316,1.2,8.6v2.79l.614,3.181,2.567,3.459,6.082,5.859,7.53,5.245,10.047-7.2,6.194-7.589,1.228-4.966L33.955,5.87,31.667,3.024,28.654,1.406,24.971.849l-3.236,1L19.168,3.024Z" transform="translate(-0.526 -0.435)" fill="#e30e48"/>
    <path id="Path_10" data-name="Path 10" d="M1064.929,712.128a9.817,9.817,0,0,0-8.448-7.494,9.575,9.575,0,0,0-7.574,2.274c-.4.341-.773.728-1.158,1.095a.182.182,0,0,1-.059-.026c-.057-.056-.112-.113-.166-.173a9.223,9.223,0,0,0-2.846-2.189,9.935,9.935,0,0,0-14.128,6.606c-.124.5-.182,1.025-.271,1.539v1.364a1.719,1.719,0,0,1,.055.23,10.864,10.864,0,0,0,1.145,3.688,21.972,21.972,0,0,0,4.2,5.594,55.409,55.409,0,0,0,11.469,8.619,1.082,1.082,0,0,0,1.207,0,54.384,54.384,0,0,0,11.491-8.585,21.678,21.678,0,0,0,4.214-5.664A9.721,9.721,0,0,0,1064.929,712.128Zm-2.786,6.77a22.572,22.572,0,0,1-4.39,5.36,54.927,54.927,0,0,1-9.789,7.189.354.354,0,0,1-.427,0,56.64,56.64,0,0,1-9.845-7.289,21.144,21.144,0,0,1-4.705-6.005,7.811,7.811,0,0,1,.311-7.991,7.928,7.928,0,0,1,6.9-3.854,8.043,8.043,0,0,1,6.583,3.385,3.555,3.555,0,0,0,.316.4.9.9,0,0,0,1.285.007,3.737,3.737,0,0,0,.344-.423,7.97,7.97,0,0,1,7.217-3.343,8.137,8.137,0,0,1,7.364,6.638A8.656,8.656,0,0,1,1062.143,718.9Z" transform="translate(-1030.28 -704.526)" fill="#e30e48" stroke="#e30e48" stroke-width="0.5"/>
  </g>
</svg>
