<svg xmlns="http://www.w3.org/2000/svg" xmlns:xlink="http://www.w3.org/1999/xlink" width="32.098" height="32.098" viewBox="0 0 32.098 32.098">
  <defs>
    <linearGradient id="linear-gradient" x1="0.146" y1="0.146" x2="0.854" y2="0.854" gradientUnits="objectBoundingBox">
      <stop offset="0" stop-color="#00baff"/>
      <stop offset="1" stop-color="#0068ef"/>
    </linearGradient>
  </defs>
  <g id="Group_21603" data-name="Group 21603" transform="translate(9243 22352.098)">
    <g id="Layer_6" transform="translate(-9243 -22352.098)">
      <path id="Path_77071" data-name="Path 77071" d="M19.049,35.1A16.049,16.049,0,1,1,35.1,19.049,16.049,16.049,0,0,1,19.049,35.1Z" transform="translate(-3 -3)" fill="url(#linear-gradient)"/>
    </g>
    <g id="Price_tag_-_Free_commerce_and_shopping_icons-2" data-name="Price tag - Free commerce and shopping icons-2" transform="translate(-9235.041 -22344.137)">
      <path id="Path_77091" data-name="Path 77091" d="M225.3,2.176a1.264,1.264,0,0,0-.24.175l-.41.381,1.973,1.79a2.212,2.212,0,0,1,.692,2.022l-1.13,6.409a2.211,2.211,0,0,1-2.563,1.795l-.36-.064.08.454a1.264,1.264,0,0,0,1.243,1.045c.073,0,6.757-1.172,6.757-1.172a1.264,1.264,0,0,0,1.025-1.464L230.79,4.6a1.264,1.264,0,0,0-.75-.944l-3.625-1.543a1.267,1.267,0,0,0-.174-.059l-.157-.983L225.977.4a.474.474,0,0,0-.936.15l.1.655Z" transform="translate(-216.205 -0.003)" fill="#fff"/>
      <path id="Path_77092" data-name="Path 77092" d="M141.917,192.155l.259-1.47-.015,0a.8.8,0,0,0-.642.53.629.629,0,0,0,.067.642A2.336,2.336,0,0,0,141.917,192.155Z" transform="translate(-136.994 -184.66)" fill="#fff"/>
      <path id="Path_77093" data-name="Path 77093" d="M159.839,270.234l-.341,1.932a1.107,1.107,0,0,0,.911-.733.889.889,0,0,0-.441-1.125Z" transform="translate(-154.458 -261.695)" fill="#fff"/>
      <path id="Path_77094" data-name="Path 77094" d="M5.776,2.3a1.263,1.263,0,0,0-.21.064L1.92,3.835a1.264,1.264,0,0,0-.771.953L.019,11.194a1.264,1.264,0,0,0,1.025,1.464L7.58,13.811a1.263,1.263,0,0,0,1.464-1.025l1.13-6.409a1.264,1.264,0,0,0-.4-1.156L6.889,2.6a1.264,1.264,0,0,0-.18-.136l.172-.974L7.046.555A.474.474,0,1,0,6.112.39l-.165.934ZM5.99,5.086l-.065.37a1.7,1.7,0,0,1,.783.5L6.748,6a.316.316,0,1,1-.429.464c-.023-.022-.046-.046-.07-.071a1.1,1.1,0,0,0-.435-.306L5.5,7.875c.1.06.207.122.323.188a1.514,1.514,0,0,1,.726,1.886,1.766,1.766,0,0,1-.71.893,1.684,1.684,0,0,1-.91.267l-.08.453a.316.316,0,0,1-.311.261.319.319,0,0,1-.055,0,.316.316,0,0,1-.256-.366l.076-.429a2.143,2.143,0,0,1-1.119-.615.316.316,0,0,1,.433-.461,1.52,1.52,0,0,0,.8.453L4.8,8.183a3.509,3.509,0,0,1-.68-.562,1.253,1.253,0,0,1-.188-1.287A1.429,1.429,0,0,1,5.093,5.4c.07-.008.138-.013.2-.016l.072-.407a.316.316,0,1,1,.622.11Z" transform="translate(0 0)" fill="#fff"/>
    </g>
  </g>
</svg>
