<svg xmlns="http://www.w3.org/2000/svg" width="30.177" height="24.976" viewBox="0 0 30.177 24.976">
  <path id="Path_10" data-name="Path 10" d="M1060.211,711.093a8.48,8.48,0,0,0-7.3-6.474,8.271,8.271,0,0,0-6.543,1.964c-.35.295-.667.629-1,.946a.159.159,0,0,1-.051-.023c-.05-.049-.1-.1-.143-.149a7.969,7.969,0,0,0-2.458-1.891,8.582,8.582,0,0,0-12.2,5.707c-.107.436-.157.885-.234,1.33v1.178a1.488,1.488,0,0,1,.048.2,9.384,9.384,0,0,0,.989,3.186,18.98,18.98,0,0,0,3.624,4.832,47.862,47.862,0,0,0,9.907,7.445.935.935,0,0,0,1.043,0,46.977,46.977,0,0,0,9.927-7.416,18.727,18.727,0,0,0,3.64-4.892A8.4,8.4,0,0,0,1060.211,711.093Zm-2.406,5.849a19.5,19.5,0,0,1-3.792,4.631,47.447,47.447,0,0,1-8.456,6.21.306.306,0,0,1-.369,0,48.93,48.93,0,0,1-8.5-6.3,18.266,18.266,0,0,1-4.065-5.187,6.747,6.747,0,0,1,.268-6.9,6.848,6.848,0,0,1,5.96-3.329,6.948,6.948,0,0,1,5.686,2.924,3.073,3.073,0,0,0,.273.347.778.778,0,0,0,1.11.006,3.235,3.235,0,0,0,.3-.365,6.884,6.884,0,0,1,6.234-2.888,7.029,7.029,0,0,1,6.361,5.734A7.476,7.476,0,0,1,1057.8,716.942Z" transform="translate(-1030.28 -704.526)" fill="#fff"/>
</svg>
