<svg id="Component_53_4" data-name="Component 53 – 4" xmlns="http://www.w3.org/2000/svg" width="23.257" height="15.872" viewBox="0 0 23.257 15.872">
  <path id="Path_13231" data-name="Path 13231" d="M612,419.635a1.448,1.448,0,0,0,.087-.155,12.474,12.474,0,0,1,3.632-4.9,12.292,12.292,0,0,1,4.844-2.453,12.477,12.477,0,0,1,4.577-.293,12.48,12.48,0,0,1,9.429,6.33c.246.442.45.908.66,1.37a.409.409,0,0,1,0,.293,12.447,12.447,0,0,1-5.2,6.042,12.114,12.114,0,0,1-5.114,1.683,12.345,12.345,0,0,1-6.735-1.193,12.164,12.164,0,0,1-4.981-4.4c-.42-.652-.738-1.37-1.1-2.058-.031-.059-.064-.118-.1-.176Zm11.654,5.336a5.29,5.29,0,1,0-5.294-5.292A5.291,5.291,0,0,0,623.654,424.971Z" transform="translate(-612 -411.746)" fill="#127daf"/>
  <path id="Path_13232" data-name="Path 13232" d="M751.426,488.254a3.179,3.179,0,1,1-3.172,3.175A3.2,3.2,0,0,1,751.426,488.254Z" transform="translate(-739.783 -483.497)" fill="#127daf"/>
</svg>
